<svg width="24" height="24" viewBox="0 0 24 24" fill="none" xmlns="http://www.w3.org/2000/svg">
<g id="fluent:pair-24-filled">
<path id="Vector" d="M18.2681 21.001H11.7321C11.5784 21.2662 11.3658 21.4926 11.1106 21.6625C10.8555 21.8325 10.5647 21.9416 10.2608 21.9813C9.9568 22.021 9.64777 21.9903 9.35755 21.8915C9.06733 21.7928 8.8037 21.6287 8.58701 21.4118C8.37032 21.195 8.20638 20.9312 8.10785 20.6409C8.00932 20.3506 7.97885 20.0416 8.01877 19.7376C8.0587 19.4337 8.16796 19.143 8.33812 18.888C8.50828 18.633 8.73478 18.4205 9.00012 18.267V15L5.73012 15.001C5.56726 15.2829 5.33802 15.5209 5.06233 15.6941C4.78663 15.8673 4.47281 15.9706 4.14812 15.995L4.00012 16C3.55987 16 3.13192 15.8547 2.78265 15.5867C2.43338 15.3187 2.18231 14.9429 2.06836 14.5176C1.95441 14.0924 1.98396 13.6414 2.15243 13.2347C2.32089 12.8279 2.61886 12.4881 3.00012 12.268V5.732C2.73442 5.57862 2.50757 5.36618 2.33712 5.11111C2.16666 4.85603 2.05717 4.56516 2.01712 4.261C1.97707 3.95684 2.00752 3.64754 2.10613 3.35703C2.20474 3.06653 2.36886 2.8026 2.58579 2.58567C2.80272 2.36874 3.06665 2.20462 3.35715 2.10601C3.64766 2.0074 3.95696 1.97695 4.26112 2.017C4.56528 2.05705 4.85615 2.16654 5.11123 2.337C5.3663 2.50745 5.57875 2.7343 5.73212 3H12.2681C12.4215 2.7343 12.6339 2.50745 12.889 2.337C13.1441 2.16654 13.435 2.05705 13.7391 2.017C14.0433 1.97695 14.3526 2.0074 14.6431 2.10601C14.9336 2.20462 15.1975 2.36874 15.4145 2.58567C15.6314 2.8026 15.7955 3.06653 15.8941 3.35703C15.9927 3.64754 16.0232 3.95684 15.9831 4.261C15.9431 4.56516 15.8336 4.85603 15.6631 5.11111C15.4927 5.36618 15.2658 5.57862 15.0001 5.732V9H18.2681C18.431 8.71774 18.6603 8.47954 18.9362 8.30613C19.2121 8.13271 19.5262 8.02934 19.8511 8.005L20.0001 8C20.4402 7.99996 20.8681 8.14509 21.2173 8.41289C21.5665 8.68069 21.8177 9.05622 21.9319 9.48126C22.046 9.9063 22.0168 10.3571 21.8487 10.7639C21.6806 11.1706 21.383 11.5105 21.0021 11.731V18.269C21.2675 18.4226 21.494 18.6353 21.6642 18.8904C21.8343 19.1456 21.9434 19.4364 21.9832 19.7405C22.023 20.0446 21.9923 20.3538 21.8935 20.6441C21.7947 20.9344 21.6305 21.1981 21.4135 21.4149C21.1966 21.6316 20.9327 21.7955 20.6422 21.894C20.3518 21.9925 20.0426 22.0228 19.7386 21.9827C19.4345 21.9426 19.1438 21.8331 18.8888 21.6627C18.6338 21.4923 18.4215 21.2666 18.2681 21.001ZM18.2681 11.001L15.0001 11L15.0011 12.268C15.2832 12.431 15.5212 12.6603 15.6944 12.9362C15.8677 13.2121 15.9709 13.5261 15.9951 13.851L16.0001 14C16.0003 14.4403 15.8552 14.8684 15.5873 15.2179C15.3193 15.5673 14.9436 15.8186 14.5182 15.9326C14.0929 16.0467 13.6419 16.0172 13.235 15.8488C12.8282 15.6803 12.4883 15.3823 12.2681 15.001L11.0011 15L11.0021 18.269C11.3051 18.444 11.5571 18.697 11.7321 18.999H18.2681C18.4443 18.6951 18.697 18.4428 19.0011 18.267V11.733C18.7481 11.5867 18.5301 11.3871 18.3621 11.148L18.2681 11.001ZM13.0001 11L11.7321 11.001C11.5565 11.3037 11.3049 11.5554 11.0021 11.731L11.0011 13H12.2681C12.444 12.6963 12.6964 12.4439 13.0001 12.268V11ZM12.2681 5.001H5.73212C5.55649 5.30374 5.30486 5.55537 5.00212 5.731V12.268C5.30412 12.444 5.55712 12.697 5.73212 13H9.00112V11.733C8.71854 11.5702 8.48006 11.3407 8.30646 11.0647C8.13286 10.7886 8.02941 10.4742 8.00512 10.149L8.00012 10C8.00014 9.55975 8.14542 9.1318 8.41344 8.78253C8.68145 8.43326 9.05723 8.18219 9.48248 8.06824C9.90773 7.95429 10.3587 7.98384 10.7654 8.15231C11.1722 8.32078 11.512 8.61874 11.7321 9H13.0001V5.732C12.7476 5.58594 12.5299 5.38666 12.3621 5.148L12.2681 5.001Z" fill="white"/>
</g>
</svg>
